<svg xmlns="http://www.w3.org/2000/svg" viewBox="0 0 233 233">
  <defs>
    <linearGradient id="a" x2="50%" x1="50%" y2="100%">
      <stop stop-color="#111D2E" offset="0"/>
      <stop stop-color="#051839" offset=".21248"/>
      <stop stop-color="#0A1B48" offset=".40695"/>
      <stop stop-color="#132E62" offset=".58110"/>
      <stop stop-color="#144B7E" offset=".73760"/>
      <stop stop-color="#136497" offset=".87279"/>
      <stop stop-color="#1387B8" offset="1"/>
    </linearGradient>
  </defs>
  <path fill="url(#a)" d="M4.89 150.12c0 11.87 0 23.75 0 35.62 0 8.48 3.32 16.27 8.66 22.2 4.89 5.4 11.34 9.31 18.6 10.95 4.48 1.02 9.13 1.02 13.77 1.02 41.69.08 83.45.08 125.14 0 10.16 0 19.7-4.65 26.45-12.05 5.1-5.55 8.5-12.71 8.5-20.6 0-24.33 0-48.66 0-73 0-11.87 0-23.75 0-35.62 0-8.48-3.32-16.27-8.66-22.2-4.89-5.4-11.34-9.31-18.6-10.95-4.48-1.02-9.13-1.02-13.77-1.02-41.69-.08-83.45-.08-125.14 0-10.16 0-19.7 4.65-26.45 12.05-5.1 5.55-8.5 12.71-8.5 20.6 0 24.33 0 48.66 0 73z"/>
  <path fill="#fff" d="M187.71 84.08c0 13.14-10.74 23.8-24 23.8-13.25 0-24-10.66-24-23.8 0-13.13 10.75-23.8 24-23.8 13.26 0 24 10.67 24 23.8zm-42.6 0c0 10.15 8.31 18.38 18.6 18.38 10.28 0 18.6-8.23 18.6-18.38 0-10.15-8.32-18.38-18.6-18.38-10.29 0-18.6 8.23-18.6 18.38zm-31.4 48.44c-5.27-2.24-11.5-1.62-16.17 1.56l-29.2 19.93c-1.3-2.7-3.37-5.05-6.02-6.7-7.88-4.95-18.39-2.49-23.35 5.38-4.95 7.87-2.49 18.38 5.39 23.33 7.88 4.95 18.38 2.5 23.34-5.38.18-.28.34-.57.5-.86l30.12 19.14c7.92 5.02 18.45 2.63 23.47-5.3 5.02-7.92 2.63-18.45-5.3-23.47l-2.78-1.77c2.2-8.8-.6-18.5-7.6-24.5a25.61 25.61 0 0 0-3.2-2.36zm-51.4 45.74c-3.7 0-6.7-3-6.7-6.7 0-3.7 3-6.7 6.7-6.7 3.7 0 6.7 3 6.7 6.7 0 3.7-3 6.7-6.7 6.7zm44.1-5.35c-3.7 0-6.7-3-6.7-6.7 0-3.7 3-6.7 6.7-6.7 3.7 0 6.7 3 6.7 6.7 0 3.7-3 6.7-6.7 6.7z"/>
  <path fill="#fff" d="M112.7 75.4c13.12 0 23.8 10.67 23.8 23.8 0 13.13-10.68 23.8-23.8 23.8-13.13 0-23.8-10.67-23.8-23.8 0-13.13 10.67-23.8 23.8-23.8zm0 5.42c10.15 0 18.38 8.23 18.38 18.38 0 10.15-8.23 18.38-18.38 18.38-10.15 0-18.38-8.23-18.38-18.38 0-10.15 8.23-18.38 18.38-18.38z"/>
</svg> 